<?xml version="1.0" standalone="no"?>
<!DOCTYPE svg PUBLIC "-//W3C//DTD SVG 20010904//EN"
 "http://www.w3.org/TR/2001/REC-SVG-20010904/DTD/svg10.dtd">
<svg version="1.0" xmlns="http://www.w3.org/2000/svg"
 width="240.000000pt" height="135.000000pt" viewBox="0 0 240.000000 135.000000"
 preserveAspectRatio="xMidYMid meet">
<metadata>
Created by potrace 1.16, written by Peter Selinger 2001-2019
</metadata>
<g transform="translate(0.000000,135.000000) scale(0.100000,-0.100000)"
fill="#000000" stroke="none">
<path d="M80 730 l0 -350 85 0 85 0 0 102 0 102 66 -90 c36 -49 68 -95 73
-102 5 -9 35 -12 113 -10 l107 3 -109 129 -108 129 104 124 c57 69 104 129
104 134 0 5 -45 9 -100 9 l-100 0 -72 -97 -73 -96 -3 181 -2 182 -85 0 -85 0
0 -350z"/>
<path d="M812 909 c-117 -23 -182 -118 -182 -264 0 -126 45 -209 134 -251 82
-38 174 -27 233 28 l23 21 0 -31 0 -32 85 0 85 0 0 265 0 265 -85 0 -85 0 0
-32 0 -31 -22 21 c-42 38 -116 55 -186 41z m158 -168 c35 -25 53 -83 40 -131
-12 -45 -61 -90 -96 -90 -119 0 -159 180 -52 234 37 18 71 14 108 -13z"/>
<path d="M2062 910 c-92 -19 -142 -69 -150 -148 -5 -57 14 -102 54 -129 15 -9
67 -28 117 -43 95 -27 121 -47 98 -74 -28 -33 -121 -7 -121 34 0 6 -35 10 -85
10 -95 0 -96 -1 -66 -65 38 -84 139 -132 256 -123 118 10 185 68 185 161 0 89
-40 126 -180 167 -41 12 -81 27 -87 32 -38 31 15 69 66 48 17 -7 33 -21 36
-31 6 -17 17 -19 87 -19 l81 0 -7 32 c-11 53 -53 108 -99 128 -53 23 -129 31
-185 20z"/>
<path d="M1290 728 c0 -103 5 -200 11 -223 35 -127 214 -177 319 -89 l30 26 0
-31 0 -31 85 0 85 0 0 265 0 265 -85 0 -85 0 0 -142 c0 -157 -10 -210 -43
-233 -34 -24 -94 -19 -122 10 -25 24 -25 27 -25 195 l0 170 -85 0 -85 0 0
-182z"/>
</g>
</svg>
